<?xml version="1.0" encoding="UTF-8"?>
<svg id="_레이어_2" data-name="레이어 2" xmlns="http://www.w3.org/2000/svg" xmlns:xlink="http://www.w3.org/1999/xlink" viewBox="0 0 495.48 222.59">
  <defs>
    <style>
      .cls-1 {
        fill: url(#_무제_그라디언트_36);
      }
    </style>
    <linearGradient id="_무제_그라디언트_36" data-name="무제 그라디언트 36" x1="0" y1="111.29" x2="495.48" y2="111.29" gradientUnits="userSpaceOnUse">
      <stop offset="0" stop-color="#9088ff"/>
      <stop offset="1" stop-color="#e3aeff"/>
    </linearGradient>
  </defs>
  <g id="_레이어_1-2" data-name="레이어 1">
    <path class="cls-1" d="M165.45,87.09h20v10h-20v-10ZM155.45,87.09h-10v60h10v-40h10v-10h-10v-10ZM245.45,147.09v-10h-40v10h40ZM245.45,87.09h-40v10h40v-10ZM195.45,97.09v40h10v-40h-10ZM265.46,87.09v10h29.99v-10h-29.99ZM265.45,117.09h-10v20h10v-20ZM295.45,137.09h-30v10h40v-50h-10v10h-30v10h30v20ZM345.45,117.09v-10h-20v10h20ZM315.45,107.09h10v-10h-10v10ZM355.45,137.09v-20h-10v20h10ZM315.45,147.09h30v-10h-30v10ZM325.45,97.09h30v-10h-30v10ZM415.45,97.09h-10v30h10v-30ZM375.45,97.09h30v-10h-40v70h10v-20h30v-10h-30v-30ZM425.45,117.09v20h10v-20h-10ZM465.45,107.09h-30v10h30v20h-30v10h40v-50h-10v10ZM435.46,87.09v10h29.99v-10h-29.99ZM485.45,147.09h10v-60h-10v60ZM485.45,77.09h10v-10h-10v10ZM145.25,173.89h12.6v-1.8h-12.6v1.8ZM179.03,164.89h-1.8v3.6h1.8v-3.6ZM180.83,168.49h-1.8v5.4h-1.8v-5.4h-1.8v5.4h-1.8v7.2h1.8v-5.4h5.4v5.4h1.8v-7.2h-1.8v-5.4ZM198.42,170.29h-1.8v10.8h1.8v-7.2h1.8v-1.8h-1.8v-1.8ZM200.22,172.09h3.6v-1.8h-3.6v1.8ZM226.81,181.09v-1.8h-7.2v1.8h7.2ZM217.81,179.29h1.8v-7.2h-1.8v7.2ZM219.61,172.09h7.2v-1.8h-7.2v1.8ZM247.99,181.09h1.8v-9h-1.8v9ZM242.59,170.29v-5.4h-1.8v16.2h1.8v-9h5.4v-1.8h-5.4ZM263.78,181.09h1.8v-10.8h-1.8v10.8ZM263.78,168.49h1.8v-1.8h-1.8v1.8ZM283.16,181.09h1.8v-3.6h-1.8v3.6ZM284.96,177.49h1.8v-3.6h-1.8v3.6ZM279.56,170.29v3.6h1.8v-3.6h-1.8ZM286.76,173.89h1.8v-3.6h-1.8v3.6ZM281.36,173.89v3.6h1.8v-3.6h-1.8ZM309.75,170.29h-5.4v1.8h5.4v-1.8ZM309.75,173.89h-5.4v-1.8h-1.8v7.2h1.8v-3.6h7.2v-3.6h-1.8v1.8ZM311.55,181.09v-1.8h-7.2v1.8h7.2ZM332.74,170.29h-5.4v1.8h5.4v7.2h-5.4v1.8h7.2v-16.2h-1.8v5.4ZM325.54,172.09v7.2h1.8v-7.2h-1.8ZM373.31,173.89v-1.8h-3.6v1.8h3.6ZM367.91,172.09h1.8v-5.4h-1.8v5.4ZM369.71,166.69h5.4v-1.8h-5.4v1.8ZM367.91,181.09h5.4v-1.8h-5.4v1.8ZM375.11,179.29v-5.4h-1.8v5.4h1.8ZM390.89,172.09h5.4v-1.8h-7.2v12.6h1.8v-3.6h5.4v-1.8h-5.4v-5.4ZM396.29,177.49h1.8v-5.4h-1.8v5.4ZM419.28,173.89h-5.4v1.8h5.4v3.6h-5.4v1.8h7.2v-9h-1.8v1.8ZM412.08,175.69v3.6h1.8v-3.6h-1.8ZM413.88,170.29v1.8h5.4v-1.8h-5.4ZM444.07,181.09v-1.8h-7.2v1.8h7.2ZM436.87,172.09h7.2v-1.8h-7.2v1.8ZM435.07,179.29h1.8v-7.2h-1.8v7.2ZM465.25,170.29h-5.4v1.8h5.4v-1.8ZM467.05,181.09v-1.8h-7.2v1.8h7.2ZM465.25,173.89h-5.4v-1.8h-1.8v7.2h1.8v-3.6h7.2v-3.6h-1.8v1.8ZM482.84,173.89h12.6v-1.8h-12.6v1.8ZM130.28,158.36c.91,7.61,2.42,15.38,1.78,23.33-.3,3.42-3.11,6.87-7.07,6.48-1.03-.07-2.26-.5-2.87-.74-3.1-1.26-5.34-2.58-8.11-4.06-23.41-13.27-45.91-27.8-68.33-42.61-7.56,25.95-14.91,51.96-22.39,77.9,0,0-11.84,3.92-11.84,3.92,7.46-27.27,17.01-61.08,24.68-88.24-9.2-6.25-18.36-12.64-27.13-19.58-2.43-2.02-4.81-3.87-6.93-6.37-.66-.86-1.67-2.2-1.92-3.62-.07-.59-.31-.89-.02-2.65.84-2.59,1.38-2.46,1.72-2.98.66-.6.97-.77,1.27-.97,4.53-2.51,9.4-3.92,14.15-5.64,11.37-3.67,22.78-7.19,34.22-10.6,5.89-19.23,12.07-38.38,18.72-57.42,2.7-6.95,4.92-13.75,8.97-20.24,2.4-3.87,6.95-5.73,10.95-2.92,3.51,2.66,4.83,6.47,6.47,10.13,6.43,17.57,11.24,35.58,15.44,53.73,43.44-11.12,87.32-20.54,131.44-28.59,43.74-7.69,87.85-13.83,132.31-15.23,34.2-.67,108.24-.95,119.67,38.96-7.47-22.04-32.87-28.95-53.56-32.26-10.87-1.63-21.87-2.3-32.87-2.47-55.19-.46-109.92,8.73-164.05,19.01-43.86,8.73-87.48,18.91-130.71,30.45,2.49,11.29,4.83,22.62,7.24,33.91,3.26,16.38,6.37,32.8,8.75,49.36ZM64.63,78.1c11.99-3.45,24.02-6.78,36.08-9.95-4.04-17.57-8.65-34.98-14.73-51.84-1.78,3.93-3.25,8.13-4.86,12.23-5.77,16.42-11.24,32.96-16.49,49.56ZM39.39,122.94c2.76-9.65,5.58-19.28,8.46-28.9-11.17,3.48-22.45,6.77-33.27,11.06,2.51,2.07,5.18,3.98,7.77,5.93,5.57,4.06,11.28,8,17.04,11.9ZM120.21,173.4c-2.03-20.75-6.29-41.58-10.21-62.09-2.34-11.02-4.61-22.1-7.04-33.16-14.07,3.84-28.1,7.83-42.09,11.96-4.05,13.07-7.99,26.17-11.85,39.3.15.1.31.21.46.31,23.17,15.12,46.51,30.32,70.73,43.69Z"/>
  </g>
</svg>